<svg version="1.1" xmlns="http://www.w3.org/2000/svg" xmlns:xlink="http://www.w3.org/1999/xlink" width="16" height="16" viewBox="0,0,256,256"><g fill="#ff7d00" fill-rule="nonzero" stroke="none" stroke-width="1" stroke-linecap="butt" stroke-linejoin="miter" stroke-miterlimit="10" stroke-dasharray="" stroke-dashoffset="0" font-family="none" font-weight="none" font-size="none" text-anchor="none" style="mix-blend-mode: normal"><g transform="scale(16,16)"><path d="M8,1c1.10457,0 2,0.89543 2,2v4h-4v-4c0,-1.10457 0.89543,-2 2,-2zM11,7v-4c0,-1.65685 -1.34315,-3 -3,-3c-1.65685,0 -3,1.34315 -3,3v4c-1.10457,0 -2,0.89543 -2,2v5c0,1.10457 0.89543,2 2,2h6c1.10457,0 2,-0.89543 2,-2v-5c0,-1.10457 -0.89543,-2 -2,-2zM5,8h6c0.55228,0 1,0.44772 1,1v5c0,0.55228 -0.44772,1 -1,1h-6c-0.55228,0 -1,-0.44772 -1,-1v-5c0,-0.55228 0.44772,-1 1,-1z"></path></g></g></svg>