<svg version="1.1" xmlns="http://www.w3.org/2000/svg" xmlns:xlink="http://www.w3.org/1999/xlink" width="16" height="16" viewBox="0,0,256,256"><g fill="#ff7d00" fill-rule="nonzero" stroke="none" stroke-width="1" stroke-linecap="butt" stroke-linejoin="miter" stroke-miterlimit="10" stroke-dasharray="" stroke-dashoffset="0" font-family="none" font-weight="none" font-size="none" text-anchor="none" style="mix-blend-mode: normal"><g transform="scale(16,16)"><path d="M11,5.466v-1.466h-6c-1.38402,-0.00013 -2.66977,0.7152 -3.3994,1.89128c-0.72963,1.17608 -0.79945,2.64577 -0.1846,3.88572c0.12316,0.24742 0.02242,0.54784 -0.225,0.671c-0.24742,0.12316 -0.54784,0.02242 -0.671,-0.225c-0.76939,-1.55009 -0.68255,-3.38781 0.22959,-4.85844c0.91214,-1.47062 2.51988,-2.36503 4.25041,-2.36456h6v-1.466c0.00004,-0.09698 0.05615,-0.18518 0.14398,-0.22631c0.08782,-0.04113 0.19151,-0.02775 0.26602,0.03431l2.36,1.966c0.12,0.1 0.12,0.284 0,0.384l-2.36,1.966c-0.07451,0.06207 -0.1782,0.07544 -0.26602,0.03431c-0.08782,-0.04113 -0.14394,-0.12933 -0.14398,-0.22631zM14.81,5.552c0.24716,-0.12274 0.54702,-0.02204 0.67,0.225c0.76939,1.55009 0.68255,3.38781 -0.22959,4.85844c-0.91214,1.47062 -2.51988,2.36503 -4.25041,2.36456h-6v1.466c-0.00004,0.09698 -0.05615,0.18518 -0.14398,0.22631c-0.08782,0.04113 -0.19151,0.02775 -0.26602,-0.03431l-2.36,-1.966c-0.05696,-0.0475 -0.08989,-0.11784 -0.08989,-0.192c0,-0.07416 0.03293,-0.1445 0.08989,-0.192l2.36,-1.966c0.07451,-0.06207 0.1782,-0.07544 0.26602,-0.03431c0.08782,0.04113 0.14394,0.12933 0.14398,0.22631v1.466h6c1.3842,0.00048 2.67027,-0.71472 3.40014,-1.89086c0.72987,-1.17614 0.79979,-2.64603 0.18486,-3.88614c-0.12274,-0.24716 -0.02204,-0.54702 0.225,-0.67z"></path></g></g></svg>