<svg version="1.1" xmlns="http://www.w3.org/2000/svg" xmlns:xlink="http://www.w3.org/1999/xlink" width="16" height="16" viewBox="0,0,256,256"><g fill="#ff8300" fill-rule="nonzero" stroke="none" stroke-width="1" stroke-linecap="butt" stroke-linejoin="miter" stroke-miterlimit="10" stroke-dasharray="" stroke-dashoffset="0" font-family="none" font-weight="none" font-size="none" text-anchor="none" style="mix-blend-mode: normal"><g transform="translate(3.31371,3.31371) scale(16,16)"><path d="M6,4.5c0,0.82843 -0.67157,1.5 -1.5,1.5c-0.82843,0 -1.5,-0.67157 -1.5,-1.5c0,-0.82843 0.67157,-1.5 1.5,-1.5c0.82843,0 1.5,0.67157 1.5,1.5zM5,4.5c0,-0.27614 -0.22386,-0.5 -0.5,-0.5c-0.27614,0 -0.5,0.22386 -0.5,0.5c0,0.27614 0.22386,0.5 0.5,0.5c0.27614,0 0.5,-0.22386 0.5,-0.5z"></path><path d="M2,1h4.586c0.26519,0.00006 0.51951,0.10545 0.707,0.293l7,7c0.39038,0.3905 0.39038,1.0235 0,1.414l-4.586,4.586c-0.3905,0.39038 -1.0235,0.39038 -1.414,0l-7,-7c-0.18755,-0.18749 -0.29294,-0.44181 -0.293,-0.707v-4.586c0,-0.55228 0.44772,-1 1,-1zM2,6.586l7,7l4.586,-4.586l-7,-7h-4.586z"></path></g></g></svg>