<svg version="1.1" xmlns="http://www.w3.org/2000/svg" xmlns:xlink="http://www.w3.org/1999/xlink" width="16" height="16" viewBox="0,0,256,256"><g fill="#ff7d00" fill-rule="nonzero" stroke="none" stroke-width="1" stroke-linecap="butt" stroke-linejoin="miter" stroke-miterlimit="10" stroke-dasharray="" stroke-dashoffset="0" font-family="none" font-weight="none" font-size="none" text-anchor="none" style="mix-blend-mode: normal"><g transform="translate(0,-0.03453) scale(16,16)"><path d="M0,3.5c0,-0.82843 0.67157,-1.5 1.5,-1.5h9c0.82843,0 1.5,0.67157 1.5,1.5v1.5h1.02c0.45523,0.00041 0.88564,0.20752 1.17,0.563l1.481,1.85c0.21309,0.26619 0.32913,0.59703 0.329,0.938v2.149c0,0.82843 -0.67157,1.5 -1.5,1.5h-0.5c0,1.10457 -0.89543,2 -2,2c-1.10457,0 -2,-0.89543 -2,-2h-5c0.00157,0.7257 -0.39009,1.3953 -1.02339,1.74966c-0.6333,0.35436 -1.40886,0.33787 -2.02652,-0.04309c-0.61766,-0.38096 -0.9805,-1.0666 -0.9481,-1.79158c-0.60038,-0.21131 -1.00203,-0.77852 -1.002,-1.415zM1.294,10.956c0.36783,-0.60221 1.02592,-0.96587 1.73153,-0.95684c0.7056,0.00903 1.35417,0.38941 1.70647,1.00084h5.536c0.1759,-0.30373 0.42827,-0.5561 0.732,-0.732v-6.768c0,-0.27614 -0.22386,-0.5 -0.5,-0.5h-9c-0.27614,0 -0.5,0.22386 -0.5,0.5v7c-0.00016,0.19658 0.11488,0.37501 0.294,0.456zM12,10c0.71451,0.00002 1.37474,0.38121 1.732,1h0.768c0.27614,0 0.5,-0.22386 0.5,-0.5v-2.15c-0.0002,-0.11347 -0.03899,-0.22349 -0.11,-0.312l-1.48,-1.85c-0.09472,-0.11862 -0.2382,-0.18778 -0.39,-0.188h-1.02zM3,11c-0.55228,0 -1,0.44772 -1,1c0,0.55228 0.44772,1 1,1c0.55228,0 1,-0.44772 1,-1c0,-0.55228 -0.44772,-1 -1,-1zM12,11c-0.55228,0 -1,0.44772 -1,1c0,0.55228 0.44772,1 1,1c0.55228,0 1,-0.44772 1,-1c0,-0.55228 -0.44772,-1 -1,-1z"></path></g></g></svg>