<svg version="1.1" xmlns="http://www.w3.org/2000/svg" xmlns:xlink="http://www.w3.org/1999/xlink" width="16" height="16" viewBox="0,0,256,256"><g fill="#ff5500" fill-rule="nonzero" stroke="none" stroke-width="1" stroke-linecap="butt" stroke-linejoin="miter" stroke-miterlimit="10" stroke-dasharray="" stroke-dashoffset="0" font-family="none" font-weight="none" font-size="none" text-anchor="none" style="mix-blend-mode: normal"><g transform="translate(8.00107,-16) scale(16,16)"><path d="M0,2.5c0,-0.27614 0.22386,-0.5 0.5,-0.5h1.5c0.22949,0.00006 0.42946,0.15634 0.485,0.379l0.405,1.621h11.61c0.15389,0.00004 0.2992,0.07095 0.39392,0.19224c0.09473,0.12129 0.12832,0.27944 0.09108,0.42876l-1.5,6c-0.05554,0.22266 -0.25551,0.37894 -0.485,0.379h-9c-0.22949,-0.00006 -0.42946,-0.15634 -0.485,-0.379l-1.905,-7.621h-1.11c-0.27614,0 -0.5,-0.22386 -0.5,-0.5zM3.14,5l1.25,5h8.22l1.25,-5zM5,13c-0.55228,0 -1,0.44772 -1,1c0,0.55228 0.44772,1 1,1c0.55228,0 1,-0.44772 1,-1c0,-0.55228 -0.44772,-1 -1,-1zM3,14c0,-1.10457 0.89543,-2 2,-2c1.10457,0 2,0.89543 2,2c0,1.10457 -0.89543,2 -2,2c-1.10457,0 -2,-0.89543 -2,-2zM12,13c-0.55228,0 -1,0.44772 -1,1c0,0.55228 0.44772,1 1,1c0.55228,0 1,-0.44772 1,-1c0,-0.55228 -0.44772,-1 -1,-1zM10,14c0,-1.10457 0.89543,-2 2,-2c1.10457,0 2,0.89543 2,2c0,1.10457 -0.89543,2 -2,2c-1.10457,0 -2,-0.89543 -2,-2z"></path></g></g></svg>