<svg version="1.1" xmlns="http://www.w3.org/2000/svg" xmlns:xlink="http://www.w3.org/1999/xlink" width="16" height="16" viewBox="0,0,256,256"><g fill="#ff6900" fill-rule="nonzero" stroke="none" stroke-width="1" stroke-linecap="butt" stroke-linejoin="miter" stroke-miterlimit="10" stroke-dasharray="" stroke-dashoffset="0" font-family="none" font-weight="none" font-size="none" text-anchor="none" style="mix-blend-mode: normal"><g transform="translate(0.00222,8.00039) scale(16,16)"><path d="M8,2.748l-0.717,-0.737c-1.683,-1.73 -4.769,-1.133 -5.883,1.042c-0.523,1.023 -0.641,2.5 0.314,4.385c0.92,1.815 2.834,3.989 6.286,6.357c3.452,-2.368 5.365,-4.542 6.286,-6.357c0.955,-1.886 0.838,-3.362 0.314,-4.385c-1.114,-2.175 -4.2,-2.773 -5.883,-1.043zM8,15c-15.333,-10.132 -4.721,-18.04 -0.176,-13.857c0.06,0.055 0.119,0.112 0.176,0.171c0.05642,-0.05895 0.11513,-0.11566 0.176,-0.17c4.544,-4.186 15.157,3.723 -0.176,13.856z"></path></g></g></svg>